<svg width="512" height="512" viewBox="0 0 512 512" fill="none" xmlns="http://www.w3.org/2000/svg" role="img" aria-label="Agentic Workflow logo">
  <defs>
    <pattern id="dots" width="26" height="26" patternUnits="userSpaceOnUse">
      <circle cx="2" cy="2" r="1.3" fill="#ffffff" opacity="0.05"/>
    </pattern>
  </defs>

  <rect width="512" height="512" fill="#0E0F1C"/>
  <rect width="512" height="512" fill="url(#dots)"/>

  <circle cx="256" cy="256" r="222" fill="none" stroke="#232046" stroke-width="1.5"/>
  <circle cx="256" cy="256" r="210" fill="none" stroke="#2C2952" stroke-width="12" stroke-dasharray="3 24" stroke-linecap="round" opacity="0.9"/>

  <path d="M124.08 260.61 A132 132 0 0 1 251.39 124.08" fill="none" stroke="#2FD4AE" stroke-width="78" stroke-linecap="butt"/>
  <path d="M305.45 133.61 A132 132 0 0 1 378.39 305.45" fill="none" stroke="#6E5DE8" stroke-width="78" stroke-linecap="butt"/>
  <path d="M347.69 350.95 A132 132 0 0 1 161.05 347.69" fill="none" stroke="#6E5DE8" stroke-width="78" stroke-linecap="butt"/>

  <line x1="254.46" y1="212.03" x2="252.65" y2="160.06" stroke="#2FD4AE" stroke-width="4" stroke-linecap="round"/>
  <line x1="272.48" y1="215.20" x2="291.96" y2="166.99" stroke="#6E5DE8" stroke-width="4" stroke-linecap="round"/>
  <line x1="224.35" y1="286.57" x2="186.94" y2="322.69" stroke="#6E5DE8" stroke-width="4" stroke-linecap="round"/>

  <circle cx="252.65" cy="160.06" r="14" fill="#2FD4AE"/>
  <circle cx="252.65" cy="160.06" r="6" fill="#0E0F1C"/>
  <circle cx="291.96" cy="166.99" r="14" fill="#6E5DE8"/>
  <circle cx="291.96" cy="166.99" r="6" fill="#0E0F1C"/>
  <circle cx="186.94" cy="322.69" r="14" fill="#6E5DE8"/>
  <circle cx="186.94" cy="322.69" r="6" fill="#0E0F1C"/>

  <circle cx="256" cy="256" r="40" fill="none" stroke="#34315E" stroke-width="2"/>
  <circle cx="256" cy="256" r="33" fill="#0E0F1C"/>
  <circle cx="256" cy="256" r="21" fill="none" stroke="#6E5DE8" stroke-width="3"/>
  <circle cx="256" cy="256" r="15" fill="none" stroke="#2FD4AE" stroke-width="1.5" opacity="0.45"/>
  <circle cx="256" cy="256" r="10" fill="#2FD4AE"/>
</svg>
